# xmcd
#
# Track frame offsets:
#  183
#  19645
#  38573
#
# Disc length: 765 seconds
#
# Revision: 0
# Processed by: cddbd v1.5.1PL2 Copyright (c) Steve Scherf et al.
# Submitted via: Collectorz.com_Music_Collector 6.9
#
DISCID=1502fb03
DTITLE=Queen Latifah - U.N.I.T.Y.
DYEAR=1993
DGENRE=R&B - Rap
TTITLE0=U.N.I.T.Y. (Censored Version)
TTITLE1=U.N.I.T.Y. (L.P. Version)
TTITLE2=U.N.I.T.Y. (Instrumental)
EXTD=
EXTT0=
EXTT1=
EXTT2=
PLAYORDER=
